<?xml version="1.0" encoding="UTF-8"?>
<svg width="135px" height="40px" viewBox="0 0 135 40" version="1.1" xmlns="http://www.w3.org/2000/svg" xmlns:xlink="http://www.w3.org/1999/xlink">
    <!-- Generator: Sketch 63.1 (92452) - https://sketch.com -->
    <title>AppStoreButton_large</title>
    <desc>Created with Sketch.</desc>
    <defs>
        <linearGradient x1="49.9984472%" y1="100.265508%" x2="49.9984472%" y2="-260.382794%" id="linearGradient-1">
            <stop stop-color="#1A1A1A" stop-opacity="0.1" offset="0%"></stop>
            <stop stop-color="#212121" stop-opacity="0.151" offset="12.3%"></stop>
            <stop stop-color="#353535" stop-opacity="0.227" offset="30.8%"></stop>
            <stop stop-color="#575757" stop-opacity="0.318" offset="53.2%"></stop>
            <stop stop-color="#858585" stop-opacity="0.421" offset="78.3%"></stop>
            <stop stop-color="#B3B3B3" stop-opacity="0.51" offset="100%"></stop>
        </linearGradient>
    </defs>
    <g id="Page-1" stroke="none" stroke-width="1" fill="none" fill-rule="evenodd">
        <g id="Tari-Concept-LP" transform="translate(-819.000000, -5254.000000)" fill-rule="nonzero">
            <g id="Footer" transform="translate(0.000000, 4632.000000)">
                <g id="Group-8" transform="translate(819.000000, 622.000000)">
                    <g id="AppStoreButton_large">
                        <path d="M133.697287,35.0704077 C133.697287,36.0811854 133.294231,37.0505063 132.576897,37.7648609 C131.859563,38.4792156 130.886795,38.8800055 129.872861,38.8789519 L4.71719045,38.8789519 C2.60485627,38.881148 0.890530308,37.1761654 0.887777437,35.0704077 L0.887777437,4.69852775 C0.890528852,2.59196625 2.60404881,0.885560491 4.71719045,0.885013692 L129.871864,0.885013692 C130.886338,0.885013692 131.859246,1.28682518 132.576494,2.0020264 C133.293741,2.71722761 133.697287,3.68721239 133.697287,4.69852775 L133.697287,35.0704077 Z" id="Path" fill="#FFFFFF"></path>
                        <path d="M129.872861,39.7649579 L4.71719045,39.7649579 C2.11529852,39.7644142 0.00495068869,37.6641951 3.69482223e-13,35.0704077 L3.69482223e-13,4.69952214 C0.00384907961,2.10447425 2.11403675,0.00219031826 4.71719045,-1.63424829e-13 L129.871864,-1.63424829e-13 C132.474563,0.00328308741 134.584109,2.10492805 134.589056,4.69952214 L134.589056,35.0704077 C134.591049,37.6598186 132.471356,39.7649579 129.872861,39.7649579 L129.872861,39.7649579 Z" id="Path" fill="#A6A6A6"></path>
                        <path d="M133.697287,35.0704077 C133.697287,36.0811854 133.294231,37.0505063 132.576897,37.7648609 C131.859563,38.4792156 130.886795,38.8800055 129.872861,38.8789519 L4.71719045,38.8789519 C2.60485627,38.881148 0.890530308,37.1761654 0.887777437,35.0704077 L0.887777437,4.69852775 C0.890528852,2.59196625 2.60404881,0.885560491 4.71719045,0.885013692 L129.871864,0.885013692 C130.886338,0.885013692 131.859246,1.28682518 132.576494,2.0020264 C133.293741,2.71722761 133.697287,3.68721239 133.697287,4.69852775 L133.697287,35.0704077 Z" id="Path" fill="#000000"></path>
                        <path d="M30.0527625,19.6731583 C30.0238349,16.4682155 32.6851722,14.9090003 32.8068675,14.8364093 C31.2996409,12.6457518 28.9634895,12.3464382 28.1425447,12.3225727 C26.1804569,12.1167324 24.2772216,13.4929784 23.2777239,13.4929784 C22.2582761,13.4929784 20.7191294,12.3424606 19.0602823,12.3762701 C16.9256265,12.4090852 14.928626,13.6411436 13.833368,15.5543642 C11.5730268,19.4553853 13.2588064,25.1880863 15.4243848,28.3413205 C16.5076728,29.8866141 17.7735038,31.6099048 19.4303558,31.5492465 C21.0512978,31.4836163 21.6567819,30.5200452 23.6128848,30.5200452 C25.5510326,30.5200452 26.1196092,31.5492465 27.8093788,31.510465 C29.5490236,31.4836163 30.6442816,29.9592051 31.6896645,28.4009843 C32.9415304,26.6319514 33.4442718,24.8877783 33.4642218,24.7982825 C33.4243217,24.784361 30.0866776,23.5135211 30.0527625,19.6731583 Z M26.8607537,10.2482597 C27.7325711,9.16138331 28.3290778,7.68271437 28.1634923,6.18216868 C26.9016513,6.23785493 25.323602,7.05226641 24.414877,8.11527724 C23.6108898,9.05199959 22.8926878,10.5873492 23.0782233,12.0312142 C24.4956747,12.1366204 25.9510312,11.3182313 26.8607537,10.2482597 L26.8607537,10.2482597 Z" id="Shape" fill="#FFFFFF"></path>
                        <path d="M129.872861,-1.56319402e-13 L62.83569,-1.56319402e-13 L89.0929545,39.7649579 L129.872861,39.7649579 C132.475238,39.7627701 134.585104,37.6616956 134.590052,35.0674246 L134.590052,4.69952214 C134.585655,2.10470121 132.475788,0.00273692326 129.872861,-1.56319402e-13 Z" id="Path" fill="url(#linearGradient-1)"></path>
                        <g id="Group" transform="translate(42.271867, 17.845485)" fill="#FFFFFF">
                            <path d="M11.2591174,13.482011 L8.99378868,13.482011 L7.75289527,9.5949115 L3.43969343,9.5949115 L2.25765269,13.482011 L0.0521741367,13.482011 L4.32647337,0.248570274 L6.96586561,0.248570274 L11.2591174,13.482011 L11.2591174,13.482011 Z M7.37883175,7.96409975 L6.25664117,4.50856876 C6.13793834,4.15555769 5.91449773,3.32424145 5.58731683,2.01561447 L5.54741672,2.01561447 C5.41574636,2.5784434 5.20527328,3.40975963 4.91699499,4.50856876 L3.81375696,7.96409975 L7.37883175,7.96409975 Z M22.2296525,8.59355331 C22.2296525,10.2164099 21.7877588,11.4991825 20.9029739,12.4408769 C20.1109567,13.2791539 19.1264215,13.6977952 17.9523608,13.6977952 C16.6845348,13.6977952 15.7728173,13.2473332 15.2192033,12.3444203 L15.2192033,17.3512113 L13.0925274,17.3512113 L13.0925274,7.07610287 C13.0925274,6.05684553 13.0655949,5.01173385 13.0137247,3.93977345 L14.8840423,3.93977345 L15.0027452,5.4522519 L15.0426453,5.4522519 C15.7518697,4.31267248 16.8281752,3.74288276 18.2725591,3.74288276 C19.4017322,3.74288276 20.3443723,4.1873784 21.0984844,5.07736408 C21.851599,5.96933856 22.2296525,7.1407387 22.2296525,8.59355331 Z M20.0630766,8.67111631 C20.0630766,7.74234913 19.853601,6.97666313 19.4326548,6.3730639 C18.9728061,5.74559914 18.3553519,5.43136956 17.5812897,5.43136956 C17.0566033,5.43136956 16.579797,5.6063835 16.1538633,5.9514394 C15.7269322,6.29947849 15.4476314,6.75391811 15.3169585,7.31674704 C15.2586235,7.52723276 15.2254755,7.74385987 15.2182058,7.96211096 L15.2182058,9.55414121 C15.2182058,10.2472362 15.4316713,10.8329363 15.8586025,11.3122358 C16.2855337,11.7895466 16.8401452,12.0291964 17.5224371,12.0291964 C18.3234318,12.0291964 18.946871,11.7199388 19.3927547,11.1063956 C19.8396359,10.4908636 20.0630766,9.67943528 20.0630766,8.67111631 L20.0630766,8.67111631 Z M33.2390902,8.59355331 C33.2390902,10.2164099 32.7971965,11.4991825 31.9124116,12.4408769 C31.1193969,13.2791539 30.1358592,13.6977952 28.960801,13.6977952 C27.692975,13.6977952 26.7812575,13.2473332 26.2276435,12.3444203 L26.2276435,17.3512113 L24.1009676,17.3512113 L24.1009676,7.07610287 C24.1009676,6.05684553 24.0740351,5.01173385 24.0221649,3.93977345 L25.8924826,3.93977345 L26.0111854,5.4522519 L26.0510855,5.4522519 C26.7593124,4.31267248 27.8356179,3.74288276 29.2809994,3.74288276 C30.409175,3.74288276 31.351815,4.1873784 32.1079221,5.07736408 C32.8600392,5.96933856 33.2390902,7.1407387 33.2390902,8.59355331 L33.2390902,8.59355331 Z M31.0715168,8.67111631 C31.0715168,7.74234913 30.8610437,6.97666313 30.4400975,6.3730639 C29.9802488,5.74559914 29.3647896,5.43136956 28.5907275,5.43136956 C28.066041,5.43136956 27.5892347,5.6063835 27.161306,5.9514394 C26.7343749,6.29947849 26.4560716,6.75391811 26.3253987,7.31674704 C26.2605611,7.57926796 26.2256485,7.7930634 26.2256485,7.96211096 L26.2256485,9.55414121 C26.2256485,10.2472362 26.4401116,10.8329363 26.8650477,11.3122358 C27.2919789,11.7885522 27.8465904,12.0291964 28.5308773,12.0291964 C29.3328695,12.0291964 29.9563087,11.7199388 30.4011949,11.1063956 C30.8480762,10.4908636 31.0715168,9.67943528 31.0715168,8.67111631 L31.0715168,8.67111631 Z M45.548274,9.76992544 C45.548274,10.8965777 45.1532629,11.8124177 44.3682283,12.5194343 C43.5043909,13.2910867 42.2984101,13.6779073 40.7522808,13.6779073 C39.3238569,13.6779073 38.1787238,13.4034536 37.3148864,12.8535518 L37.8066553,11.0865076 C38.7393203,11.6374038 39.7637556,11.9118575 40.8789637,11.9118575 C41.6809559,11.9118575 42.3043951,11.7308771 42.7492813,11.3718997 C43.1951651,11.0119278 43.4206007,10.5306395 43.4206007,9.93002343 C43.4206007,9.39205443 43.2340677,8.9415924 42.8679842,8.57465976 C42.4999056,8.20872152 41.891429,7.8676432 41.0365691,7.55440802 C38.7123877,6.69027668 37.5492996,5.42639757 37.5492996,3.76376511 C37.5492996,2.67788314 37.9602707,1.78889186 38.7802179,1.09380807 C39.6001652,0.399718679 40.6874432,0.0526739844 42.0400569,0.0526739844 C43.2480327,0.0526739844 44.254513,0.262491837 45.0535127,0.681133146 L44.5198487,2.40939584 C43.7677316,2.0036817 42.9188568,1.80082463 41.9692342,1.80082463 C41.2191121,1.80082463 40.6305855,1.98478815 40.2096394,2.35072639 C39.8555259,2.67788314 39.6759754,3.0766365 39.6759754,3.54996966 C39.6759754,4.0720283 39.8804635,4.50558557 40.2874446,4.84566949 C40.6405605,5.15890467 41.2849473,5.49998298 42.2166149,5.86592122 C43.359753,6.32533283 44.1996503,6.86031863 44.7373043,7.47485623 C45.2789483,8.08939383 45.548274,8.85607423 45.548274,9.76992544 Z M52.5976259,5.5308093 L50.2534944,5.5308093 L50.2534944,10.1637068 C50.2534944,11.3420677 50.6664606,11.9297566 51.4943878,11.9297566 C51.8744364,11.9297566 52.1896472,11.8979359 52.4390229,11.8313113 L52.4978756,13.4412407 C52.0789244,13.5973611 51.5273054,13.6759185 50.844016,13.6759185 C50.0041187,13.6759185 49.3477619,13.4203583 48.8739481,12.9092381 C48.4021293,12.3981178 48.1647237,11.5419416 48.1647237,10.336732 L48.1647237,5.52683171 L46.7682199,5.52683171 L46.7682199,3.93579586 L48.1647237,3.93579586 L48.1647237,2.18863961 L50.2534944,1.56018045 L50.2534944,3.93579586 L52.5976259,3.93579586 L52.5976259,5.5308093 L52.5976259,5.5308093 Z M63.1531998,8.63233481 C63.1531998,10.099071 62.7322537,11.3032862 61.8923564,12.2449806 C61.0135565,13.2145181 59.8444832,13.6977952 58.3871317,13.6977952 C56.9806529,13.6977952 55.8624523,13.2334116 55.02854,12.3056388 C54.1946277,11.3758773 53.7776716,10.2044771 53.7776716,8.7914384 C53.7776716,7.31276945 54.2085928,6.10159341 55.0674426,5.15989907 C55.9282875,4.21721032 57.0873857,3.74586595 58.5447372,3.74586595 C59.949221,3.74586595 61.0773966,4.21124394 61.931259,5.14001112 C62.7472162,6.04093517 63.1531998,7.20438013 63.1531998,8.63233481 Z M60.9487188,8.68106028 C60.9487188,7.80698496 60.7591933,7.05720932 60.3791447,6.42974455 C59.933261,5.67201373 59.2948592,5.29314832 58.4679295,5.29314832 C57.6160621,5.29314832 56.9626978,5.67201373 56.5178116,6.42974455 C56.1367656,7.05720932 55.9472401,7.81991213 55.9472401,8.72083618 C55.9472401,9.5959059 56.1367656,10.3476703 56.5178116,10.9731463 C56.9776604,11.7308771 57.6190546,12.1097425 58.4499744,12.1097425 C59.2629392,12.1097425 59.9003434,11.722922 60.3611897,10.9542528 C60.7522107,10.311872 60.9487188,9.5571244 60.9487188,8.68106028 Z M70.0688863,5.80426859 C69.8476965,5.76445993 69.6233287,5.74482229 69.3985645,5.74559914 C68.6504374,5.74559914 68.0718858,6.02601921 67.6649047,6.59083693 C67.3117887,7.08803564 67.1342333,7.7164948 67.1342333,8.47522002 L67.1342333,13.482011 L65.0075574,13.482011 L65.0075574,6.94484241 C65.009454,5.94314941 64.9888338,4.94153981 64.9457123,3.94076785 L66.7980748,3.94076785 L66.87588,5.76648148 L66.9347327,5.76648148 C67.1601683,5.13901672 67.5132843,4.63286844 67.9980706,4.25400303 C68.4418131,3.92294597 68.9809741,3.74366886 69.5352223,3.74288276 C69.7317304,3.74288276 69.9092859,3.75680432 70.0668913,3.78166426 L70.0688863,5.80426859 L70.0688863,5.80426859 Z M79.5800749,8.25943578 C79.5854677,8.58171963 79.55941,8.90376256 79.5022697,9.22101808 L73.1222422,9.22101808 C73.1461823,10.1637068 73.4554081,10.8856393 74.0479247,11.382838 C74.5855787,11.8263393 75.2808381,12.0490843 76.1347005,12.0490843 C77.0793356,12.0490843 77.9411779,11.8999247 78.7162375,11.5986223 L79.0494035,13.069336 C78.143671,13.4631174 77.074348,13.6590137 75.8404372,13.6590137 C74.3561531,13.6590137 73.1910699,13.2234676 72.3431926,12.3543643 C71.4973102,11.4842666 71.0733716,10.3148552 71.0733716,8.85010784 C71.0733716,7.41220919 71.4673852,6.21396032 72.2564098,5.25834441 C73.0823421,4.23809267 74.1985476,3.7279668 75.6030315,3.7279668 C76.9825778,3.7279668 78.0269632,4.23809267 78.7361876,5.25834441 C79.2977816,6.0667895 79.5800749,7.06914209 79.5800749,8.25943578 L79.5800749,8.25943578 Z M77.5521519,7.70953402 C77.5671144,7.08008046 77.427464,6.53813387 77.1391857,6.07971667 C76.7711072,5.48904461 76.2045257,5.19470298 75.4454261,5.19470298 C74.7501667,5.19470298 74.1835851,5.48208383 73.7526639,6.05883432 C73.3985505,6.51725153 73.1880774,7.06814769 73.1232397,7.70754522 L77.5521519,7.70953402 Z" id="Shape"></path>
                        </g>
                        <g id="Group" transform="translate(43.538478, 6.503068)" fill="#FFFFFF">
                            <path d="M1.55961791,6.91234716 C0.968098789,6.91234716 0.456379884,6.88350963 0.0304462154,6.83478416 L0.0304462154,0.436831243 C0.626163422,0.345093237 1.22815799,0.299876402 1.83093866,0.301546094 C4.26983285,0.301546094 5.39302093,1.49785328 5.39302093,3.44786659 C5.39302093,5.69719353 4.06634229,6.91234716 1.55961791,6.91234716 Z M1.91672389,1.12197106 C1.58754799,1.12197106 1.30724972,1.141859 1.07483158,1.18959008 L1.07483158,6.0531878 C1.20051693,6.07307574 1.44191259,6.08202532 1.78106352,6.08202532 C3.37906291,6.08202532 4.2887854,5.17513489 4.2887854,3.47670412 C4.2887854,1.96223686 3.46584564,1.12197106 1.91672389,1.12197106 L1.91672389,1.12197106 Z M8.89325804,6.96107263 C7.51869927,6.96107263 6.62792932,5.9378377 6.62792932,4.54866452 C6.62792932,3.1008219 7.53765182,2.06863739 8.97106325,2.06863739 C10.325672,2.06863739 11.236392,3.04314685 11.236392,4.47209592 C11.236392,5.9378377 10.2977419,6.96107263 8.89325804,6.96107263 Z M8.93315815,2.8303458 C8.17804858,2.8303458 7.69425975,3.53437917 7.69425975,4.5188326 C7.69425975,5.48439248 8.18802361,6.18842584 8.92318312,6.18842584 C9.65834264,6.18842584 10.1521065,5.43566701 10.1521065,4.49894465 C10.1521065,3.54432314 9.66831767,2.8303458 8.93315815,2.8303458 Z M19.0747685,2.16509394 L17.6034519,6.85467211 L16.6448518,6.85467211 L16.0353776,4.81814622 C15.8838359,4.31999831 15.7576569,3.8145306 15.6573241,3.30367897 L15.6373741,3.30367897 C15.5605663,3.81479923 15.4149309,4.3269139 15.260318,4.81814622 L14.6119412,6.85467211 L13.6433661,6.85467211 L12.2588323,2.16509394 L13.3331427,2.16509394 L13.8658092,4.39453292 C13.9914945,4.92554114 14.0972298,5.42671743 14.1850101,5.9000506 L14.2049601,5.9000506 C14.2817678,5.50527483 14.4074532,5.01205371 14.5919912,4.4044769 L15.260318,2.16608833 L16.1121854,2.16608833 L16.7515846,4.35674582 C16.9061975,4.88775404 17.0318829,5.40881828 17.1296381,5.90104499 L17.1575682,5.90104499 C17.2253984,5.41876225 17.3321312,4.90664759 17.4767691,4.35674582 L18.0483382,2.16608833 L19.0747685,2.16509394 L19.0747685,2.16509394 Z M24.4912084,6.85467211 L23.4458255,6.85467211 L23.4458255,4.16184393 C23.4458255,3.33251649 23.1266246,2.91685838 22.4972004,2.91685838 C21.8777512,2.91685838 21.4518175,3.44786659 21.4518175,4.06538738 L21.4518175,6.85467211 L20.4064346,6.85467211 L20.4064346,3.50554164 C20.4064346,3.09087792 20.3964596,2.64638228 20.367532,2.16409954 L21.2872296,2.16409954 L21.3361072,2.88802085 L21.3650348,2.88802085 C21.6463305,2.38684456 22.2169021,2.06863739 22.8563014,2.06863739 C23.8438291,2.06863739 24.4922059,2.82139622 24.4922059,4.04649383 L24.4912084,6.85467211 L24.4912084,6.85467211 Z M27.3739913,6.85467211 L26.3276109,6.85467211 L26.3276109,0.0132179476 L27.3739913,0.0132179476 L27.3739913,6.85467211 Z M31.1854492,6.96107263 C29.811888,6.96107263 28.9201205,5.9378377 28.9201205,4.54866452 C28.9201205,3.1008219 29.829843,2.06863739 31.2622569,2.06863739 C32.6178632,2.06863739 33.5275864,3.04314685 33.5275864,4.47209592 C33.5285832,5.9378377 32.5889356,6.96107263 31.1854492,6.96107263 Z M31.2243518,2.8303458 C30.4692423,2.8303458 29.9854534,3.53437917 29.9854534,4.5188326 C29.9854534,5.48439248 30.4802148,6.18842584 31.2133793,6.18842584 C31.9495363,6.18842584 32.4423042,5.43566701 32.4423042,4.49894465 C32.4433002,3.54432314 31.9605089,2.8303458 31.2243518,2.8303458 L31.2243518,2.8303458 Z M37.649267,6.85467211 L37.5734568,6.31471431 L37.5455267,6.31471431 C37.2263258,6.74926598 36.760492,6.96107263 36.1699704,6.96107263 C35.3270806,6.96107263 34.728579,6.37238936 34.728579,5.58084903 C34.728579,4.42337045 35.7350592,3.82474321 37.4776965,3.82474321 L37.4776965,3.73823063 C37.4776965,3.12070984 37.1495181,2.81145225 36.5011413,2.81145225 C36.0373025,2.81145225 35.6303214,2.92779675 35.2722179,3.15949134 L35.0597499,2.47435153 C35.4946611,2.20387543 36.0373025,2.06863739 36.6747068,2.06863739 C37.9036302,2.06863739 38.5240769,2.7149957 38.5240769,4.00870673 L38.5240769,5.73597502 C38.5240769,6.20930819 38.5450244,6.57624083 38.5919071,6.8556665 L37.649267,6.85467211 L37.649267,6.85467211 Z M37.5056266,4.5188326 C36.3445334,4.5188326 35.7619918,4.79925267 35.7619918,5.46450453 C35.7619918,5.95673125 36.0622401,6.19737542 36.4791963,6.19737542 C37.0108652,6.19737542 37.5056266,5.79265568 37.5056266,5.24275391 L37.5056266,4.5188326 L37.5056266,4.5188326 Z M43.6003683,6.85467211 L43.5514907,6.10191327 L43.5225631,6.10191327 C43.2223148,6.67070859 42.7175784,6.96107263 42.0123439,6.96107263 C40.8781833,6.96107263 40.038286,5.96667522 40.038286,4.56755807 C40.038286,3.1008219 40.9091059,2.06764299 42.0981292,2.06764299 C42.7275534,2.06764299 43.1734371,2.27944964 43.4248078,2.70505173 L43.4457554,2.70505173 L43.4457554,0.0132179476 L44.4921357,0.0132179476 L44.4921357,5.590793 C44.4921357,6.04423822 44.5031083,6.46884591 44.5310384,6.85467211 L43.6003683,6.85467211 Z M43.4457554,4.0952193 C43.4457554,3.43891701 43.0098467,2.87907127 42.3445124,2.87907127 C41.5694527,2.87907127 41.0956389,3.56421109 41.0956389,4.52877657 C41.0956389,5.47444851 41.5874078,6.12180122 42.3235648,6.12180122 C42.9809191,6.12180122 43.4457554,5.5520115 43.4457554,4.87681566 L43.4457554,4.0952193 Z M51.1265265,6.96107263 C49.7529652,6.96107263 48.8621952,5.9378377 48.8621952,4.54866452 C48.8621952,3.1008219 49.7719177,2.06863739 51.2043317,2.06863739 C52.5599379,2.06863739 53.4696612,3.04314685 53.4696612,4.47209592 C53.4706579,5.9378377 52.5320078,6.96107263 51.1265265,6.96107263 Z M51.1654291,2.8303458 C50.411317,2.8303458 49.9275282,3.53437917 49.9275282,4.5188326 C49.9275282,5.48439248 50.421292,6.18842584 51.155454,6.18842584 C51.8916111,6.18842584 52.3843836,5.43566701 52.3843836,4.49894465 C52.3863724,3.54432314 51.9025836,2.8303458 51.1654291,2.8303458 Z M59.0915858,6.85467211 L58.0452054,6.85467211 L58.0452054,4.16184393 C58.0452054,3.33251649 57.7260046,2.91685838 57.0965803,2.91685838 C56.4771311,2.91685838 56.052195,3.44786659 56.052195,4.06538738 L56.052195,6.85467211 L55.0058146,6.85467211 L55.0058146,3.50554164 C55.0058146,3.09087792 54.9958396,2.64638228 54.966912,2.16409954 L55.8866095,2.16409954 L55.9354872,2.88802085 L55.9644147,2.88802085 C56.244713,2.38684456 56.8162821,2.06764299 57.4546838,2.06764299 C58.4422115,2.06764299 59.0915858,2.82040183 59.0915858,4.04549943 L59.0915858,6.85467211 Z M66.1249776,2.9466903 L64.974857,2.9466903 L64.974857,5.22386036 C64.974857,5.80359405 65.1763525,6.09296369 65.5833336,6.09296369 C65.7678716,6.09296369 65.9224846,6.07307574 66.0471724,6.04423822 L66.0761,6.83577856 C65.8736069,6.91334155 65.6022862,6.95212305 65.2651303,6.95212305 C64.441193,6.95212305 63.9484267,6.49867783 63.9484267,5.31136733 L63.9484267,2.9466903 L63.2621448,2.9466903 L63.2621448,2.16509394 L63.9484267,2.16509394 L63.9484267,1.30593458 L64.974857,0.996676983 L64.974857,2.16409954 L66.1249776,2.16409954 L66.1249776,2.9466903 L66.1249776,2.9466903 Z M71.6591228,6.85467211 L70.6147374,6.85467211 L70.6147374,4.18173188 C70.6147374,3.34246047 70.2965341,2.91785277 69.6661123,2.91785277 C69.1244684,2.91785277 68.619732,3.28478542 68.619732,4.02760028 L68.619732,6.85467211 L67.5753466,6.85467211 L67.5753466,0.0132179476 L68.619732,0.0132179476 L68.619732,2.8303458 L68.6406795,2.8303458 C68.9698554,2.31922553 69.4466617,2.06764299 70.0551384,2.06764299 C71.0506461,2.06764299 71.6591228,2.83929538 71.6591228,4.06538738 L71.6591228,6.85467211 L71.6591228,6.85467211 Z M77.3289284,4.76047117 L74.1917823,4.76047117 C74.2117323,5.64846805 74.8012564,6.14964435 75.6740713,6.14964435 C76.1379101,6.14964435 76.5648413,6.07208135 76.9418973,5.92789372 L77.1044903,6.65181504 C76.659604,6.84472813 76.1359151,6.94118468 75.5264409,6.94118468 C74.0551244,6.94118468 73.1843045,6.0144063 73.1843045,4.57750204 C73.1843045,3.13960339 74.0760719,2.05869341 75.4087356,2.05869341 C76.6107264,2.05869341 77.3648385,2.9466903 77.3648385,4.2881324 C77.3715982,4.4464395 77.3595444,4.60498793 77.3289284,4.76047117 L77.3289284,4.76047117 Z M76.3703282,4.0176563 C76.3703282,3.29373499 76.0042447,2.78261473 75.3359179,2.78261473 C74.7354213,2.78261473 74.26061,3.30367897 74.1927798,4.0176563 L76.3703282,4.0176563 L76.3703282,4.0176563 Z" id="Shape"></path>
                        </g>
                    </g>
                </g>
            </g>
        </g>
    </g>
</svg>