<?xml version="1.0" encoding="UTF-8"?>
<svg width="135px" height="40px" viewBox="0 0 135 40" version="1.1" xmlns="http://www.w3.org/2000/svg">
    <!-- Generator: Sketch 63.1 (92452) - https://sketch.com -->
    <title>PlayStoreButton_large</title>
    <desc>Created with Sketch.</desc>
    <defs>
        <linearGradient x1="61.0932848%" y1="4.94958549%" x2="26.3278898%" y2="71.9258683%" id="linearGradient-1">
            <stop stop-color="#00A0FF" offset="0%"></stop>
            <stop stop-color="#00A1FF" offset="0.6569999%"></stop>
            <stop stop-color="#00BEFF" offset="26.01%"></stop>
            <stop stop-color="#00D2FF" offset="51.22%"></stop>
            <stop stop-color="#00DFFF" offset="76.04%"></stop>
            <stop stop-color="#00E3FF" offset="100%"></stop>
        </linearGradient>
        <linearGradient x1="107.630451%" y1="50.0004315%" x2="-130.551706%" y2="50.0004315%" id="linearGradient-2">
            <stop stop-color="#FFE000" offset="0%"></stop>
            <stop stop-color="#FFBD00" offset="40.87%"></stop>
            <stop stop-color="#FFA500" offset="77.54%"></stop>
            <stop stop-color="#FF9C00" offset="100%"></stop>
        </linearGradient>
        <linearGradient x1="86.243474%" y1="31.0129027%" x2="-50.1292379%" y2="135.530013%" id="linearGradient-3">
            <stop stop-color="#FF3A44" offset="0%"></stop>
            <stop stop-color="#C31162" offset="100%"></stop>
        </linearGradient>
        <linearGradient x1="-18.8105628%" y1="-11.4733023%" x2="42.0848536%" y2="35.1715034%" id="linearGradient-4">
            <stop stop-color="#32A071" offset="0%"></stop>
            <stop stop-color="#2DA771" offset="6.85%"></stop>
            <stop stop-color="#15CF74" offset="47.62%"></stop>
            <stop stop-color="#06E775" offset="80.09%"></stop>
            <stop stop-color="#00F076" offset="100%"></stop>
        </linearGradient>
    </defs>
    <g id="Page-1" stroke="none" stroke-width="1" fill="none" fill-rule="evenodd">
        <g id="Tari-Concept-LP" transform="translate(-966.000000, -5254.000000)">
            <g id="Footer" transform="translate(0.000000, 4632.000000)">
                <g id="Group-8" transform="translate(819.000000, 622.000000)">
                    <g id="PlayStoreButton_large" transform="translate(147.000000, 0.000000)">
                        <path d="M129.646836,39.6150591 L4.98832203,39.6150591 C2.23904822,39.6150591 -8.38440428e-13,37.3823899 -8.38440428e-13,34.6631767 L-8.38440428e-13,4.95188239 C-8.38440428e-13,2.2227901 2.23904822,1.10134124e-13 4.98832203,1.10134124e-13 L129.646836,1.10134124e-13 C132.393633,1.10134124e-13 134.635158,2.2227901 134.635158,4.95188239 L134.635158,34.6631767 C134.635158,37.3823899 132.393633,39.6150591 129.646836,39.6150591 Z" id="Path" fill="#000000" fill-rule="nonzero"></path>
                        <path d="M129.646836,0.792795135 C131.952759,0.792795135 133.840098,2.66240858 133.840098,4.95188239 L133.840098,34.6631767 C133.840098,36.9526505 131.965143,38.8222639 129.646836,38.8222639 L4.98832203,38.8222639 C2.68239958,38.8222639 0.795060264,36.9526505 0.795060264,34.6631767 L0.795060264,4.95188239 C0.795060264,2.66240858 2.67001547,0.792795135 4.98832203,0.792795135 C4.98832203,0.792795135 129.646836,0.792795135 129.646836,0.792795135 Z M129.646836,1.10134124e-13 L4.98832203,1.10134124e-13 C2.23904822,1.10134124e-13 -8.38440428e-13,2.23266917 -8.38440428e-13,4.95188239 L-8.38440428e-13,34.6631767 C-8.38440428e-13,37.392269 2.23904822,39.6150591 4.98832203,39.6150591 L129.646836,39.6150591 C132.393633,39.6150591 134.635158,37.392269 134.635158,34.6631767 L134.635158,4.95188239 C134.635158,2.23266917 132.393633,1.10134124e-13 129.646836,1.10134124e-13 Z" id="Shape" fill="#A6A6A6"></path>
                        <path d="M70.9263106,13.1045825 C70.0272238,13.1045825 69.2693159,12.7909221 68.6699247,12.1734804 C68.0754871,11.5733271 67.7435928,10.7459552 67.7584537,9.901295 C67.7584537,8.99983013 68.0655798,8.2366722 68.6699247,7.63157934 C69.2668391,7.01413764 70.024747,6.70047726 70.9238338,6.70047726 C71.8130134,6.70047726 72.5709213,7.01413764 73.1802198,7.63157934 C73.7845647,8.25643033 74.0916908,9.01958826 74.0916908,9.901295 C74.0817835,10.8052296 73.7746574,11.5683876 73.1802198,12.1710107 C72.5833054,12.7933919 71.8253975,13.1045825 70.9263106,13.1045825 Z M44.1741427,13.1045825 C43.2948704,13.1045825 42.5320089,12.7958617 41.9078494,12.1858293 C41.2886436,11.5782666 40.9740871,10.8101692 40.9740871,9.90376477 C40.9740871,8.99736036 41.2886436,8.2292629 41.9078494,7.62170027 C42.5196248,7.01166788 43.2824863,6.70294703 44.1741427,6.70294703 C44.6100636,6.70294703 45.0336004,6.78938887 45.4397994,6.96474231 C45.8385679,7.13515621 46.1630318,7.36731429 46.4032836,7.65133747 L46.4627274,7.72296071 L45.7915083,8.37991867 L45.7221572,8.29841637 C45.3432033,7.84891881 44.8354545,7.62910957 44.1642354,7.62910957 C43.5648442,7.62910957 43.0422345,7.84150951 42.6112672,8.26136986 C42.1778232,8.68369998 41.9573859,9.23692774 41.9573859,9.90623454 C41.9573859,10.5755413 42.1778232,11.1287691 42.6112672,11.5510992 C43.0422345,11.9709596 43.5648442,12.1833595 44.1642354,12.1833595 C44.8032558,12.1833595 45.3407265,11.9709596 45.7593096,11.5510992 C46.0069919,11.3041225 46.160555,10.9583552 46.2150451,10.5212065 L44.0626857,10.5212065 L44.0626857,9.59751369 L47.1389001,9.59751369 L47.1512843,9.68148576 C47.1735757,9.83708107 47.1958671,9.99761591 47.1958671,10.1458019 C47.1958671,10.9978715 46.9382775,11.6869364 46.4280519,12.1957083 C45.8484752,12.7983314 45.0905673,13.1045825 44.1741427,13.1045825 Z M79.7438014,12.9736849 L78.7951781,12.9736849 L75.8898644,8.33793263 L75.9146327,9.1727138 L75.9146327,12.9712151 L74.9660094,12.9712151 L74.9660094,6.83384467 L76.0483811,6.83384467 L76.078103,6.88077024 L78.8100391,11.2473179 L78.7852708,10.4150065 L78.7852708,6.83384467 L79.7438014,6.83384467 L79.7438014,12.9736849 L79.7438014,12.9736849 Z M63.7980133,12.9736849 L62.8370059,12.9736849 L62.8370059,7.75753744 L61.1701039,7.75753744 L61.1701039,6.83384467 L65.4624386,6.83384467 L65.4624386,7.75753744 L63.7955365,7.75753744 L63.7955365,12.9736849 L63.7980133,12.9736849 Z M60.3874277,12.9736849 L59.4288971,12.9736849 L59.4288971,6.83384467 L60.3874277,6.83384467 L60.3874277,12.9736849 Z M55.0003371,12.9736849 L54.0418065,12.9736849 L54.0418065,7.75753744 L52.3749045,7.75753744 L52.3749045,6.83384467 L56.6672392,6.83384467 L56.6672392,7.75753744 L55.0003371,7.75753744 L55.0003371,12.9736849 Z M51.7680828,12.9638058 L48.0924771,12.9638058 L48.0924771,6.83384467 L51.7680828,6.83384467 L51.7680828,7.75753744 L49.0534845,7.75753744 L49.0534845,9.44191838 L51.5030627,9.44191838 L51.5030627,10.3557321 L49.0534845,10.3557321 L49.0534845,12.040113 L51.7680828,12.040113 L51.7680828,12.9638058 Z M69.3733425,11.5387504 C69.8018329,11.96602 70.3219658,12.1808897 70.9263106,12.1808897 C71.5479933,12.1808897 72.0557421,11.9709596 72.4792788,11.5387504 C72.9003388,11.11889 73.1133456,10.568132 73.1133456,9.90376477 C73.1133456,9.23939751 72.9003388,8.68616975 72.4817557,8.26877916 C72.0532652,7.84150951 71.5306555,7.6266398 70.9287875,7.6266398 C70.3071048,7.6266398 69.7993561,7.83656998 69.3782961,8.26877916 C68.9572362,8.68863952 68.7442294,9.23939751 68.7442294,9.90376477 C68.7442294,10.568132 68.9547593,11.1213598 69.3733425,11.5387504 L69.3733425,11.5387504 Z" id="Shape" fill="#FFFFFF" fill-rule="nonzero"></path>
                        <path d="M67.6692881,21.5462454 C65.3286901,21.5462454 63.4314435,23.3170681 63.4314435,25.7596675 C63.4314435,28.1800389 65.3410742,29.9730896 67.6692881,29.9730896 C70.009886,29.9730896 71.9071327,28.189918 71.9071327,25.7596675 C71.9071327,23.3170681 70.009886,21.5462454 67.6692881,21.5462454 Z M67.6692881,28.3035272 C66.3887705,28.3035272 65.2865841,27.2464671 65.2865841,25.7497884 C65.2865841,24.2308818 66.3912473,23.1960496 67.6692881,23.1960496 C68.9498057,23.1960496 70.0519962,24.2308818 70.0519962,25.7497884 C70.0544689,27.2563461 68.9498057,28.3035272 67.6692881,28.3035272 Z M58.4233069,21.5462454 C56.0827089,21.5462454 54.1854623,23.3170681 54.1854623,25.7596675 C54.1854623,28.1800389 56.095093,29.9730896 58.4233069,29.9730896 C60.7639048,29.9730896 62.6611515,28.189918 62.6611515,25.7596675 C62.6611515,23.3170681 60.761428,21.5462454 58.4233069,21.5462454 Z M58.4233069,28.3035272 C57.1427893,28.3035272 56.0406029,27.2464671 56.0406029,25.7497884 C56.0406029,24.2308818 57.1452661,23.1960496 58.4233069,23.1960496 C59.7038245,23.1960496 60.8060108,24.2308818 60.8060108,25.7497884 C60.8060108,27.2563461 59.7038245,28.3035272 58.4233069,28.3035272 Z M47.421258,22.8329938 L47.421258,24.6161655 L51.7135927,24.6161655 C51.582321,25.616421 51.2504267,26.3548813 50.742678,26.8611835 C50.1135649,27.4885042 49.1426501,28.1701598 47.4311653,28.1701598 C44.7933485,28.1701598 42.7301547,26.0461604 42.7301547,23.4158588 C42.7301547,20.7855572 44.7933485,18.6615578 47.4311653,18.6615578 C48.8553386,18.6615578 49.8931276,19.2221948 50.6634196,19.9384272 L51.9315531,18.6739066 C50.8615655,17.6514231 49.4373921,16.8685071 47.4410726,16.8685071 C43.8224338,16.8685071 40.7858485,19.8075295 40.7858485,23.4059797 C40.7858485,27.014309 43.819957,29.9434524 47.4410726,29.9434524 C49.3952861,29.9434524 50.8615655,29.3062526 52.0207188,28.1059459 C53.2021635,26.9278672 53.5761638,25.2657141 53.5761638,23.9246308 C53.5761638,23.5072402 53.5439651,23.1318356 53.4770908,22.8132357 L47.4187812,22.8132357 C47.421258,22.8107659 47.421258,22.8329938 47.421258,22.8329938 Z M92.4226597,24.2210028 C92.0684739,23.2750821 90.9984863,21.5363663 88.8040209,21.5363663 C86.6293701,21.5363663 84.8212891,23.2429751 84.8212891,25.7497884 C84.8212891,28.115825 86.6095555,29.9632105 89.0145509,29.9632105 C90.946473,29.9632105 92.0709508,28.7851318 92.5341167,28.0935971 L91.100036,27.1353276 C90.624486,27.8392111 89.9631742,28.3010575 89.0244582,28.3010575 C88.0758348,28.3010575 87.4120462,27.8713181 86.9711717,27.0241881 L92.6208055,24.6902585 C92.6208055,24.6927282 92.4226597,24.2210028 92.4226597,24.2210028 Z M86.6615688,25.6287698 C86.616986,24.0011935 87.9297023,23.1738217 88.8684183,23.1738217 C89.6089884,23.1738217 90.2257174,23.5368774 90.4362474,24.0654075 L86.6615688,25.6287698 Z M82.0720153,29.7112943 L83.9271559,29.7112943 L83.9271559,17.3328232 L82.0720153,17.3328232 L82.0720153,29.7112943 Z M79.0255227,22.482287 L78.9586485,22.482287 C78.5400653,21.9858638 77.7450051,21.5363663 76.7295075,21.5363663 C74.6217309,21.5363663 72.6799015,23.3862216 72.6799015,25.7621372 C72.6799015,28.1281738 74.6118236,29.9558012 76.7295075,29.9558012 C77.7326209,29.9558012 78.5400653,29.5038339 78.9586485,28.9975317 L79.0255227,28.9975317 L79.0255227,29.6026246 C79.0255227,31.2104427 78.1635882,32.0773309 76.7740903,32.0773309 C75.6372285,32.0773309 74.9313338,31.2623078 74.6440224,30.5806522 L73.0316104,31.2524288 C73.4947764,32.3638238 74.7307112,33.7394839 76.7716135,33.7394839 C78.9462643,33.7394839 80.7890208,32.4626145 80.7890208,29.3482386 L80.7890208,21.7882825 L79.03543,21.7882825 L79.03543,22.482287 C79.0379068,22.482287 79.0255227,22.482287 79.0255227,22.482287 Z M76.8954547,28.3035272 C75.6149371,28.3035272 74.5449494,27.236588 74.5449494,25.7621372 C74.5449494,24.2753376 75.6149371,23.1985193 76.8954547,23.1985193 C78.1635882,23.1985193 79.146887,24.2876865 79.146887,25.7621372 C79.1592711,27.236588 78.166065,28.3035272 76.8954547,28.3035272 Z M101.108879,17.3328232 L96.6728884,17.3328232 L96.6728884,29.7112943 L98.528029,29.7112943 L98.528029,25.023677 L101.111356,25.023677 C103.164642,25.023677 105.183253,23.5393471 105.183253,21.1831896 C105.183253,18.8270321 103.172073,17.3328232 101.108879,17.3328232 Z M101.163369,23.2948402 L98.5255521,23.2948402 L98.5255521,19.0468414 L101.163369,19.0468414 C102.552867,19.0468414 103.33802,20.1903434 103.33802,21.1708408 C103.33802,22.1414591 102.542959,23.2948402 101.163369,23.2948402 Z M112.618676,21.5240174 C111.271285,21.5240174 109.881787,22.1192312 109.307164,23.4158588 L110.951774,24.0975144 C111.30596,23.4158588 111.954888,23.1837007 112.640968,23.1837007 C113.601975,23.1837007 114.57289,23.7566866 114.595181,24.7791701 L114.595181,24.9100677 C114.263287,24.7223654 113.535101,24.4358725 112.663259,24.4358725 C110.887377,24.4358725 109.086726,25.4040211 109.086726,27.2192996 C109.086726,28.8814527 110.543099,29.9483919 112.165418,29.9483919 C113.41126,29.9483919 114.09734,29.3877549 114.52583,28.7382062 L114.592705,28.7382062 L114.592705,29.6964757 L116.380971,29.6964757 L116.380971,24.9545235 C116.380971,22.746552 114.73636,21.5240174 112.618676,21.5240174 Z M112.385855,28.3035272 C111.779033,28.3035272 110.929483,28.0071552 110.929483,27.2464671 C110.929483,26.2881976 111.989563,25.9251418 112.893604,25.9251418 C113.710956,25.9251418 114.09734,26.1004953 114.582797,26.3425324 C114.449049,27.4539275 113.507856,28.2936482 112.385855,28.3035272 Z M122.904923,21.7882825 L120.774855,27.1575555 L120.707981,27.1575555 L118.501132,21.7882825 L116.504812,21.7882825 L119.816325,29.2939037 L117.928986,33.4653398 L119.860908,33.4653398 L124.955733,21.7882825 C124.955733,21.7882825 122.904923,21.7882825 122.904923,21.7882825 Z M106.206181,29.7112943 L108.061322,29.7112943 L108.061322,17.3328232 L106.206181,17.3328232 L106.206181,29.7112943 Z" id="Shape" fill="#FFFFFF"></path>
                        <path d="M10.3630285,7.46116543 C10.075717,7.76988628 9.90976983,8.24161173 9.90976983,8.85905342 L9.90976983,30.7584754 C9.90976983,31.3759171 10.075717,31.8476426 10.3729358,32.1440146 L10.4497173,32.2106983 L22.7545752,19.9408969 L22.7545752,19.6667528 L10.43981,7.39448173 C10.43981,7.39448173 10.3630285,7.46116543 10.3630285,7.46116543 Z" id="Path" fill="url(#linearGradient-1)"></path>
                        <path d="M26.8487641,24.0431796 L22.7446679,19.950776 L22.7446679,19.6642831 L26.8487641,15.5718795 L26.9379297,15.6262144 L31.7925033,18.3775346 C33.1820011,19.1579809 33.1820011,20.4471991 31.7925033,21.2375245 L26.9379297,23.9888447 C26.9379297,23.9888447 26.8487641,24.0431796 26.8487641,24.0431796 Z" id="Path" fill="url(#linearGradient-2)"></path>
                        <path d="M26.9379297,23.9888447 L22.7446679,19.8075295 L10.3630285,32.1538937 C10.8162871,32.6379679 11.5766719,32.6923028 12.4262223,32.2205774 L26.9379297,23.9888447" id="Path" fill="url(#linearGradient-3)"></path>
                        <path d="M26.9379297,15.6262144 L12.4262223,7.40683056 C11.5766719,6.92275627 10.8138103,6.98943998 10.3630285,7.47351426 L22.7446679,19.8075295 L26.9379297,15.6262144 Z" id="Path" fill="url(#linearGradient-4)"></path>
                        <path d="M26.8487641,23.8999331 L12.4361295,32.064982 C11.631162,32.5268284 10.9128832,32.4947215 10.4497173,32.0748611 L10.3729358,32.1514239 L10.4497173,32.2181076 C10.9128832,32.6354982 11.631162,32.6700749 12.4361295,32.2082285 L26.947837,23.9888447 C26.947837,23.9888447 26.8487641,23.8999331 26.8487641,23.8999331 Z" id="Path" fill="#000000" fill-rule="nonzero" opacity="0.2"></path>
                        <path d="M31.7925033,21.094278 L26.8363799,23.8999331 L26.9255456,23.9888447 L31.7801191,21.2375245 C32.4761065,20.8423618 32.8179081,20.3237108 32.8179081,19.8075295 C32.7758021,20.2817248 32.4216164,20.7312223 31.7925033,21.094278 Z" id="Path" fill="#000000" fill-rule="nonzero" opacity="0.12"></path>
                        <path d="M12.4262223,7.55007703 L31.7925033,18.5207811 C32.4216164,18.8739577 32.7758021,19.3358041 32.8302922,19.8075295 C32.8302922,19.2913483 32.4884906,18.7726973 31.7925033,18.3775346 L12.4262223,7.40683056 C11.0367244,6.61403543 9.90976983,7.27593292 9.90976983,8.85905342 L9.90976983,9.0022999 C9.90976983,7.41670963 11.0367244,6.76716097 12.4262223,7.55007703 Z" id="Path" fill="#FFFFFF" opacity="0.25"></path>
                    </g>
                </g>
            </g>
        </g>
    </g>
</svg>